<svg xmlns="http://www.w3.org/2000/svg" viewBox="0 0 32 32" width="32" height="32">
  <defs>
    <linearGradient id="waterGrad" x1="0%" y1="0%" x2="100%" y2="100%">
      <stop offset="0%" style="stop-color:#4FC3F7;stop-opacity:1" />
      <stop offset="100%" style="stop-color:#0288D1;stop-opacity:1" />
    </linearGradient>
  </defs>
  <!-- Water wave base -->
  <path d="M0 20 Q6 17 12 20 T24 20 T32 20 V32 H0 Z" fill="url(#waterGrad)" opacity="0.8"/>
  <path d="M0 24 Q5 21 10 24 T20 24 T30 24 T32 24 V32 H0 Z" fill="url(#waterGrad)" opacity="0.6"/>
  <!-- Building silhouette -->
  <rect x="10" y="5" width="12" height="19" fill="#fff" rx="1"/>
  <rect x="12" y="7" width="3" height="3" fill="#0288D1" rx="0.3"/>
  <rect x="17" y="7" width="3" height="3" fill="#0288D1" rx="0.3"/>
  <rect x="12" y="12" width="3" height="3" fill="#0288D1" rx="0.3"/>
  <rect x="17" y="12" width="3" height="3" fill="#0288D1" rx="0.3"/>
  <rect x="12" y="17" width="3" height="3" fill="#0288D1" rx="0.3"/>
  <rect x="17" y="17" width="3" height="3" fill="#0288D1" rx="0.3"/>
  <!-- Roof -->
  <polygon points="16,2 23,6 9,6" fill="#fff"/>
</svg>
